# xmcd
#
# Track frame offsets: 
#        182
#        9272
#        29387
#        43975
#        86217
#        98475
#        114570
#        121080
#        139402
#        155682
#        184807
#        199282
#        232127
#        263560
#
# Disc length: 4175 seconds
#
# Revision: 1
# Processed by: cddbd v1.5.2PL0 Copyright (c) Steve Scherf et al.
# Submitted via: ExactAudioCopy v1.0b4
#
DISCID=c0104d0e
DTITLE=José Carreras / Golden Voices of the 3 Tenors, The, CD 2
DYEAR=1994
DGENRE=Opera
TTITLE0=Addio Fiorito Asil From Madame Butterfly
TTITLE1=Al Siloe! Al Siloe! ...Guerra From I Lombardi Alla Prima Croci
TTITLE1=ata
TTITLE2=Ancora Un Passo Or Via From Madame Butterfly
TTITLE3=Bimba, Bimba Non Piangere From Madame Butterfly
TTITLE4=Che Fai? ...Amami Alfredo From La Traviata
TTITLE5=Chi Ne Salva?...Quia Grida! From I Lombardi Alla Prima Crociat
TTITLE5=a
TTITLE6=Che Vid To Mai?...Del Ciel Che Non Punisce From I Lombardi All
TTITLE6=a Prima Crociata
TTITLE7=De Miei Bollenti Spriti From La Traviata
TTITLE8=Di Tu Se Fedele From Un Ballo In Maschera
TTITLE9=Dovunuque Al Mondo...Amore O Grillo From Madame Butterfly
TTITLE10=E Lucevan Le Stelle From Tosca
TTITLE11=Ellla Mi Fu Raita...Farmi Veder Le Lacrime From Rigoletto
TTITLE12=Forse La Soglia Attinse From Un Ballo In Maschera
TTITLE13=Gieselda! O Ciel Traveggo... From I Lombardi Alla Prima Croci
TTITLE13=ata
EXTD=
EXTT0=
EXTT1=
EXTT2=
EXTT3=
EXTT4=
EXTT5=
EXTT6=
EXTT7=
EXTT8=
EXTT9=
EXTT10=
EXTT11=
EXTT12=
EXTT13=
PLAYORDER=
.
